<?xml version="1.0" encoding="UTF-8" standalone="no"?>
<svg
   width="24"
   height="24"
   viewBox="0 0 510 510"
   version="1.1"
   id="svg3"
   sodipodi:docname="logo2.svg"
   inkscape:version="1.4.3 (fcd0343856, 2026-01-01)"
   xmlns:inkscape="http://www.inkscape.org/namespaces/inkscape"
   xmlns:sodipodi="http://sodipodi.sourceforge.net/DTD/sodipodi-0.dtd"
   xmlns="http://www.w3.org/2000/svg"
   xmlns:svg="http://www.w3.org/2000/svg">
  <defs
     id="defs3" />
  <sodipodi:namedview
     id="namedview3"
     pagecolor="#505050"
     bordercolor="#ffffff"
     borderopacity="1"
     inkscape:showpageshadow="0"
     inkscape:pageopacity="0"
     inkscape:pagecheckerboard="1"
     inkscape:deskcolor="#505050"
     inkscape:zoom="1.1718361"
     inkscape:cx="151.47169"
     inkscape:cy="247.04819"
     inkscape:window-width="1850"
     inkscape:window-height="1016"
     inkscape:window-x="70"
     inkscape:window-y="27"
     inkscape:window-maximized="1"
     inkscape:current-layer="svg3" />
  <path
     d="m 248.22305,259.60562 a 266.03,266.03 0 0 0 -0.133,-21.586 c -0.193,-4.07 -0.454,-8.214 -0.776,-12.315 -0.323,-4.049 -0.749,-7.95 -1.268,-11.595 l -0.003,-0.021 c -0.58,-3.752 -2.269,-6.869 -5.025,-9.266 -2.776,-2.409 -6.68,-3.554 -11.652,-3.42 -3.281,0.137 -6.601,0.897 -9.87,2.256 -3.186,1.33 -6.341,3.042 -9.38,5.089 a 78.023,78.023 0 0 0 -8.691,6.815 c -2.743,2.481 -5.245,4.918 -7.435,7.239 l -0.127,0.152 c -1.426,1.898 -2.061,3.772 -1.889,5.564 0.166,1.765 0.921,3.332 2.243,4.65 1.325,1.328 2.959,2.084 4.854,2.245 1.992,0.183 3.839,-0.534 5.288,-1.985 a 138.656,138.656 0 0 1 11.628,-9.341 c 3.951,-2.839 7.429,-4.773 10.375,-5.756 1.393,-0.498 2.517,-0.598 3.334,-0.296 0.557,0.206 0.922,0.931 1.091,2.188 0.252,1.638 0.474,3.641 0.662,5.957 0.188,2.304 0.348,4.851 0.478,7.564 0.127,2.686 0.225,5.369 0.29,7.973 0.031,1.227 0.053,2.408 0.067,3.535 -0.85,-0.524 -1.732,-0.95 -2.641,-1.277 -1.959,-0.698 -3.921,-1.088 -5.835,-1.163 a 27.851,27.851 0 0 0 -5.364,0.311 c -1.777,0.288 -3.145,0.643 -4.076,1.045 -3.801,1.359 -7.145,3.291 -9.933,5.74 -2.783,2.443 -5.025,5.24 -6.666,8.312 -1.639,3.075 -2.679,6.335 -3.089,9.688 -0.411,3.363 -0.201,6.669 0.624,9.836 1.266,4.781 3.752,8.438 7.385,10.86 2.821,1.88 5.947,2.828 9.337,2.828 0.993,0 2.009,-0.082 3.046,-0.244 2.304,-0.408 4.825,-1.154 7.49,-2.224 a 84.353,84.353 0 0 0 7.887,-3.646 102.895,102.895 0 0 0 7.464,-4.32 160.34,160.34 0 0 0 5.37,-3.578 c 2.459,1.214 4.73,1.803 6.773,1.729 1.923,-0.063 4.484,-0.941 5.734,-4.701 0.801,-2.079 0.703,-4.452 -0.289,-7.052 -0.917,-2.395 -3.302,-4.948 -7.278,-7.79 m -17.607,6.618 c -2.097,1.817 -4.852,3.542 -8.207,5.136 -3.783,1.797 -7.188,3.019 -10.194,3.645 -0.632,0.162 -1.167,0.136 -1.635,-0.083 -0.496,-0.229 -0.636,-0.479 -0.698,-0.667 -0.536,-1.71 -0.508,-3.408 0.087,-5.192 a 15.582,15.582 0 0 1 2.954,-5.205 21.683,21.683 0 0 1 4.643,-4.109 c 1.642,-1.075 3.202,-1.797 4.636,-2.146 0.678,-0.048 1.485,0.426 2.042,0.835 a 18.164,18.164 0 0 1 3.075,2.902 32.003,32.003 0 0 1 2.563,3.475 c 0.392,0.62 0.612,1.081 0.734,1.409 m 170.538,8.459 a 583.348,583.348 0 0 1 -2.213,-13.474 336.383,336.383 0 0 1 -1.824,-13.829 292.563,292.563 0 0 1 -1.148,-12.547 c 0,-1.347 -0.375,-2.659 -1.117,-3.895 a 15.081,15.081 0 0 0 -2.197,-2.854 9.905,9.905 0 0 0 -2.824,-1.991 c -1.174,-0.541 -2.281,-0.714 -3.205,-0.53 -1.197,0.172 -2.553,0.81 -4.15,1.952 -1.836,1.309 -2.766,2.796 -2.766,4.422 0,1.665 -0.18,3.286 -0.533,4.816 a 54.49,54.49 0 0 1 -1.324,4.729 c -0.865,2.959 -2.377,6.448 -4.494,10.372 -2.139,3.958 -4.555,7.674 -7.18,11.049 -2.602,3.347 -5.295,6.139 -8.004,8.294 -2.139,1.701 -3.994,2.483 -5.561,2.502 -0.775,-1.055 -1.301,-2.789 -1.537,-5.073 -0.311,-2.964 -0.311,-6.359 0.004,-10.097 0.309,-3.755 0.854,-7.756 1.617,-11.89 a 321.103,321.103 0 0 1 2.299,-11.403 c 0.645,-2.617 -0.029,-5.145 -2.004,-7.515 -1.867,-2.238 -3.992,-3.609 -6.234,-4.056 -1.643,-0.41 -3.215,0.082 -4.42,1.385 -0.973,1.054 -1.633,2.253 -1.953,3.543 -0.645,2.438 -1.396,5.647 -2.238,9.535 a 156.952,156.952 0 0 0 -2.146,12.397 111.46,111.46 0 0 0 -0.982,13.239 c -0.068,4.526 0.441,8.726 1.521,12.501 2.91,9.697 7.365,14.985 13.268,15.722 3.801,0.422 7.539,-0.254 11.104,-2.003 3.424,-1.675 6.754,-4.053 9.904,-7.066 a 79.187,79.187 0 0 0 8.686,-9.873 103.537,103.537 0 0 0 4.262,-6.16 l 0.213,1.505 c 0.387,2.645 0.807,5.416 1.256,8.315 0.451,2.901 0.979,5.733 1.568,8.409 0.594,2.716 1.23,5.029 1.926,6.958 0.822,1.982 2.084,3.341 3.74,4.034 1.02,0.431 2.039,0.65 3.068,0.65 0.547,0 1.096,-0.062 1.65,-0.186 1.844,-0.504 3.484,-1.86 4.877,-4.03 1.432,-2.228 1.896,-4.327 1.396,-6.156 -0.766,-3.434 -1.541,-7.372 -2.305,-11.701 m 32.778,-90.208 c -2.781,-0.64 -5.037,0.521 -6.361,3.268 -1.012,2.09 -1.916,4.734 -2.693,7.859 l -0.033,0.175 c -0.84,5.858 -1.6,12.427 -2.256,19.521 -0.652,7.027 -1.25,14.362 -1.777,21.804 a 848.633,848.633 0 0 0 -1.279,22.287 c -0.33,7.38 -0.535,14.49 -0.613,21.146 -0.004,0.994 0.217,2.115 0.68,3.428 a 32.71,32.71 0 0 0 1.359,3.325 c 0.543,1.148 1.209,2.15 1.98,2.979 0.916,0.981 1.953,1.573 3.152,1.771 0.313,0.04 0.615,0.06 0.91,0.06 1.359,0 2.559,-0.411 3.58,-1.226 1.854,-1.479 2.945,-4.187 3.352,-8.377 0.48,-13.613 1.209,-28.155 2.166,-43.217 0.951,-14.99 2.271,-29.616 3.922,-43.472 l 0.002,-0.018 c 0.283,-2.579 0.037,-4.901 -0.723,-6.901 -0.874,-2.285 -2.732,-3.81 -5.368,-4.412 m -230.24,135.199 v -0.045 c 0,-4.596 3.544,-8.445 8.559,-8.445 5.015,0 8.516,3.804 8.516,8.397 v 0.048 c 0,4.594 -3.545,8.442 -8.561,8.442 -5.015,0 -8.514,-3.803 -8.514,-8.397 m 14.065,0 v -0.045 c 0,-3.173 -2.31,-5.809 -5.551,-5.809 -3.241,0 -5.505,2.59 -5.505,5.761 v 0.048 c 0,3.172 2.31,5.783 5.551,5.783 3.243,0 5.505,-2.565 5.505,-5.738 m 6.393,-4.197 h 2.822 v 2.052 c 0.909,-1.284 2.193,-2.31 4.198,-2.31 2.892,0 5.715,2.286 5.715,6.391 v 0.047 c 0,4.082 -2.8,6.392 -5.715,6.392 -2.053,0 -3.335,-1.027 -4.198,-2.172 v 5.646 h -2.822 z m 9.866,6.18 v -0.047 c 0,-2.379 -1.609,-3.942 -3.521,-3.942 -1.913,0 -3.593,1.588 -3.593,3.942 v 0.047 c 0,2.355 1.68,3.941 3.593,3.941 1.935,0 3.521,-1.516 3.521,-3.941 m 5.343,0.023 v -0.047 c 0,-3.522 2.496,-6.414 6.017,-6.414 3.918,0 5.903,3.079 5.903,6.624 0,0.257 -0.023,0.514 -0.048,0.792 h -9.05 c 0.302,2.007 1.726,3.126 3.545,3.126 1.376,0 2.356,-0.512 3.336,-1.469 l 1.654,1.469 c -1.166,1.4 -2.774,2.31 -5.038,2.31 -3.567,0 -6.319,-2.59 -6.319,-6.391 m 9.119,-0.91 c -0.186,-1.819 -1.26,-3.243 -3.125,-3.243 -1.726,0 -2.938,1.331 -3.195,3.243 z m 5.877,-5.295 h 2.822 v 1.891 c 0.795,-1.145 1.938,-2.146 3.85,-2.146 2.775,0 4.385,1.865 4.385,4.712 v 7.86 h -2.822 v -6.996 c 0,-1.914 -0.955,-3.01 -2.637,-3.01 -1.631,0 -2.775,1.141 -2.775,3.054 v 6.952 h -2.822 v -12.317 z m 22.418,-4.01 h 2.871 v 16.327 h -2.871 z m 7.137,4.01 h 2.824 v 1.891 c 0.793,-1.145 1.934,-2.146 3.846,-2.146 2.777,0 4.387,1.865 4.387,4.712 v 7.86 h -2.822 v -6.996 c 0,-1.914 -0.957,-3.01 -2.635,-3.01 -1.633,0 -2.775,1.141 -2.775,3.054 v 6.952 h -2.824 v -12.317 z m 15.279,8.909 v -6.483 h -1.561 v -2.426 h 1.561 v -3.382 h 2.822 v 3.382 h 3.313 v 2.426 h -3.313 v 6.041 c 0,1.097 0.561,1.539 1.516,1.539 0.631,0 1.189,-0.139 1.75,-0.419 v 2.309 c -0.699,0.396 -1.469,0.631 -2.543,0.631 -2.076,0 -3.545,-0.911 -3.545,-3.618 m 8.211,-2.704 v -0.047 c 0,-3.522 2.496,-6.414 6.02,-6.414 3.916,0 5.898,3.079 5.898,6.624 0,0.257 -0.021,0.514 -0.045,0.792 h -9.051 c 0.303,2.007 1.727,3.126 3.545,3.126 1.377,0 2.355,-0.512 3.336,-1.469 l 1.654,1.469 c -1.166,1.4 -2.773,2.31 -5.037,2.31 -3.568,0 -6.32,-2.59 -6.32,-6.391 m 9.121,-0.91 c -0.188,-1.819 -1.262,-3.243 -3.127,-3.243 -1.727,0 -2.938,1.331 -3.195,3.243 z m 6.042,-10.005 h 2.822 v 17.026 h -2.822 z m 6.904,0 h 2.822 v 17.026 h -2.822 z m 6.787,0.14 h 3.035 v 2.683 h -3.035 z m 0.117,4.57 h 2.822 v 12.316 h -2.822 z m 6.719,14.626 1.049,-2.125 c 1.33,0.817 2.705,1.308 4.387,1.308 2.518,0 3.895,-1.308 3.895,-3.777 v -0.957 c -1.027,1.329 -2.311,2.262 -4.342,2.262 -2.889,0 -5.594,-2.144 -5.594,-5.761 v -0.048 c 0,-3.637 2.729,-5.783 5.594,-5.783 2.078,0 3.361,0.955 4.316,2.099 v -1.841 h 2.824 v 9.794 c 0,2.077 -0.537,3.617 -1.564,4.644 -1.119,1.118 -2.844,1.654 -5.061,1.654 -2.03,-10e-4 -3.92,-0.513 -5.504,-1.469 m 9.351,-9.073 v -0.047 c 0,-2.007 -1.656,-3.383 -3.615,-3.383 -1.957,0 -3.496,1.353 -3.496,3.383 v 0.047 c 0,2.005 1.561,3.381 3.496,3.381 1.959,0 3.615,-1.376 3.615,-3.381 m 5.881,0.652 v -0.047 c 0,-3.522 2.494,-6.414 6.018,-6.414 3.918,0 5.9,3.079 5.9,6.624 0,0.257 -0.021,0.514 -0.047,0.792 h -9.051 c 0.303,2.007 1.727,3.126 3.547,3.126 1.375,0 2.355,-0.512 3.334,-1.469 l 1.656,1.469 c -1.166,1.4 -2.773,2.31 -5.039,2.31 -3.568,0 -6.318,-2.59 -6.318,-6.391 m 9.119,-0.91 c -0.186,-1.819 -1.26,-3.243 -3.127,-3.243 -1.725,0 -2.939,1.331 -3.193,3.243 z m 5.879,-5.295 h 2.822 v 1.891 c 0.793,-1.145 1.936,-2.146 3.848,-2.146 2.775,0 4.385,1.865 4.385,4.712 v 7.86 h -2.82 v -6.996 c 0,-1.914 -0.957,-3.01 -2.637,-3.01 -1.635,0 -2.775,1.141 -2.775,3.054 v 6.952 h -2.822 v -12.317 z m 15.28,8.909 v -6.483 h -1.563 v -2.426 h 1.563 v -3.382 h 2.822 v 3.382 h 3.311 v 2.426 h -3.311 v 6.041 c 0,1.097 0.559,1.539 1.516,1.539 0.627,0 1.189,-0.139 1.748,-0.419 v 2.309 c -0.699,0.396 -1.469,0.631 -2.543,0.631 -2.075,0 -3.543,-0.911 -3.543,-3.618 m 16.795,-12.919 h 6.436 c 3.826,0 6.205,2.168 6.205,5.457 v 0.048 c 0,3.661 -2.939,5.575 -6.531,5.575 h -3.242 v 5.247 h -2.867 v -16.327 z m 6.203,8.49 c 2.17,0 3.521,-1.213 3.521,-2.916 v -0.047 c 0,-1.911 -1.377,-2.917 -3.521,-2.917 h -3.336 v 5.88 z m 9.285,-4.48 h 2.82 v 2.776 c 0.771,-1.844 2.193,-3.102 4.363,-3.01 v 2.986 h -0.164 c -2.473,0 -4.199,1.609 -4.199,4.874 v 4.689 h -2.82 z m 8.467,8.772 v -0.048 c 0,-2.659 2.074,-3.965 5.084,-3.965 1.375,0 2.355,0.209 3.313,0.514 v -0.305 c 0,-1.749 -1.072,-2.682 -3.055,-2.682 -1.377,0 -2.404,0.304 -3.523,0.77 l -0.746,-2.215 c 1.354,-0.606 2.684,-1.004 4.643,-1.004 1.842,0 3.219,0.49 4.084,1.378 0.906,0.885 1.326,2.19 1.326,3.8 v 7.302 h -2.752 v -1.54 c -0.838,1.004 -2.121,1.797 -4.012,1.797 -2.31,0 -4.362,-1.331 -4.362,-3.802 m 8.443,-0.887 v -0.84 c -0.725,-0.279 -1.68,-0.49 -2.799,-0.49 -1.818,0 -2.893,0.771 -2.893,2.052 v 0.048 c 0,1.188 1.049,1.864 2.402,1.864 1.868,0 3.29,-1.072 3.29,-2.634 m 5.623,-1.657 v -0.046 c 0,-3.498 2.705,-6.438 6.414,-6.438 2.307,0 3.754,0.863 4.922,2.122 l -1.775,1.889 c -0.861,-0.909 -1.771,-1.538 -3.17,-1.538 -2.053,0 -3.568,1.773 -3.568,3.918 v 0.047 c 0,2.192 1.516,3.941 3.684,3.941 1.33,0 2.311,-0.606 3.195,-1.516 l 1.703,1.679 c -1.213,1.354 -2.635,2.311 -5.037,2.311 -3.663,0 -6.368,-2.87 -6.368,-6.369 m 14.813,2.681 v -6.483 h -1.564 v -2.426 h 1.564 v -3.382 h 2.822 v 3.382 h 3.311 v 2.426 h -3.311 v 6.041 c 0,1.097 0.559,1.539 1.514,1.539 0.631,0 1.189,-0.139 1.75,-0.419 v 2.309 c -0.699,0.396 -1.469,0.631 -2.543,0.631 -2.077,0 -3.543,-0.911 -3.543,-3.618 m 9.281,-13.479 h 3.033 v 2.683 h -3.033 z m 0.119,4.57 h 2.82 v 12.316 h -2.82 z m 6.064,6.228 v -0.046 c 0,-3.498 2.703,-6.438 6.412,-6.438 2.311,0 3.756,0.863 4.924,2.122 l -1.771,1.889 c -0.865,-0.909 -1.773,-1.538 -3.176,-1.538 -2.051,0 -3.568,1.773 -3.568,3.918 v 0.047 c 0,2.192 1.518,3.941 3.686,3.941 1.33,0 2.311,-0.606 3.195,-1.516 l 1.703,1.679 c -1.211,1.354 -2.635,2.311 -5.037,2.311 -3.665,0 -6.368,-2.87 -6.368,-6.369 m 13.203,-0.023 v -0.047 c 0,-3.522 2.494,-6.414 6.016,-6.414 3.918,0 5.9,3.079 5.9,6.624 0,0.257 -0.021,0.514 -0.045,0.792 h -9.049 c 0.303,2.007 1.727,3.126 3.543,3.126 1.377,0 2.357,-0.512 3.336,-1.469 l 1.656,1.469 c -1.166,1.4 -2.775,2.31 -5.037,2.31 -3.57,0 -6.32,-2.59 -6.32,-6.391 m 9.12,-0.91 c -0.188,-1.819 -1.262,-3.243 -3.127,-3.243 -1.727,0 -2.939,1.331 -3.195,3.243 z m -420.048004,-80.189 a 39.882,39.882 0 0 0 -6.879,-7.22 78.786,78.786 0 0 0 -8.191,-5.839 1945.116,1945.116 0 0 1 -7.627,-4.598 c -2.902,-1.754 -5.959,-3.58 -9.172,-5.483 a 1709.978,1709.978 0 0 1 -9.735,-5.799 203.136,203.136 0 0 1 -9.087,-5.76 c -4.011,-2.671 -6.497,-5.551 -7.389,-8.564 -0.831,-2.791 0.295,-5.697 3.437,-8.882 1.7,-1.716 3.749,-3.056 6.088,-3.983 2.371,-0.936 4.642,-1.409 6.752,-1.409 1.697,0 3.509,0.271 5.383,0.807 a 50.041,50.041 0 0 1 5.897,2.114 64.089,64.089 0 0 1 5.479,2.663 c 1.667,0.922 3.115,1.81 4.323,2.653 2.127,1.448 4.289,1.943 6.417,1.467 2.045,-0.451 3.471,-1.175 4.363,-2.215 l 0.034,-0.041 c 1.166,-1.448 1.808,-3.035 1.912,-4.723 0.106,-1.792 -0.398,-3.326 -1.513,-4.576 -3.74,-4.092 -8.667,-7.582 -14.645,-10.374 -6.027,-2.81 -12.395,-4.077 -18.938,-3.775 -4.72,0.306 -9.101,1.31 -13.023,2.985 -3.919,1.679 -7.402,3.884 -10.3529999,6.557 -2.9719999,2.697 -5.3149999,5.743 -6.9659999,9.059 a 23.866,23.866 0 0 0 -2.534999989694,10.751 c 0,3.605 0.885999959694,7.319 2.632999989694,11.041 1.753,3.738 4.562,7.188 8.3499998,10.257 l 0.119,0.089 c 7.507,5.107 15.024,9.707 22.342,13.67 7.161,3.879 14.015,8.117 20.419,12.626 3.934,2.584 6.687,5.477 8.183,8.598 1.476,3.083 1.859,5.957 1.155,8.853 -0.553,2.696 -1.963,5.15 -4.192,7.298 -2.254,2.168 -5.287,3.673 -9.021,4.478 -5.014,1.101 -9.858,1.002 -14.402,-0.303 -4.584,-1.309 -8.629,-3.438 -12.021,-6.327 l -0.257,-0.183 c -1.665,-0.968 -3.844,-1.137 -6.66,-0.526 -2.778,0.607 -4.791,1.764 -5.984,3.434 -1.0079999,1.403 -0.9999999,3.378 0.021,6.031 0.859,2.249 1.928,4.067 3.196,5.416 4.59,4.743 10.282,8 16.917,9.682 a 47.087,47.087 0 0 0 11.573,1.444 c 2.833,0 5.683,-0.253 8.536,-0.762 7.783,-1.361 14.735,-4.546 20.661,-9.469 6.036,-5.011 9.681,-11.836 10.834,-20.28 l 0.016,-0.237 c 0,-4.254 -0.585,-8.128 -1.738,-11.519 -1.153,-3.371 -2.738,-6.44 -4.712,-9.126 m 433.397004,29.57 c -0.801,-2.438 -3.055,-5.106 -6.889,-8.138 0.246,-2.882 0.455,-6.078 0.625,-9.516 0.188,-3.872 0.289,-7.927 0.299,-12.051 0.008,-4.049 -0.049,-8.201 -0.172,-12.338 a 191.754,191.754 0 0 0 -0.697,-11.643 l -0.002,-0.021 c -0.396,-3.776 -1.932,-6.973 -4.566,-9.5 -2.654,-2.543 -6.506,-3.885 -11.471,-3.989 -3.268,-0.045 -6.637,0.573 -9.969,1.772 -3.244,1.17 -6.48,2.725 -9.617,4.623 a 78.23,78.23 0 0 0 -9.018,6.381 c -2.854,2.341 -5.473,4.651 -7.779,6.866 l -0.133,0.146 c -1.518,1.829 -2.244,3.667 -2.16,5.466 0.08,1.772 0.758,3.371 2.014,4.753 1.26,1.393 2.855,2.228 4.74,2.482 1.977,0.27 3.859,-0.348 5.375,-1.725 a 139.078,139.078 0 0 1 12.072,-8.761 c 4.086,-2.643 7.656,-4.403 10.646,-5.241 1.416,-0.428 2.545,-0.474 3.344,-0.133 0.547,0.232 0.877,0.976 0.984,2.239 0.172,1.654 0.295,3.669 0.369,5.981 0.074,2.336 0.111,4.888 0.105,7.58 a 366.493,366.493 0 0 1 -0.1,7.978 c -0.031,1.231 -0.066,2.41 -0.107,3.533 a 14.002,14.002 0 0 0 -2.576,-1.406 c -1.922,-0.792 -3.861,-1.279 -5.768,-1.445 a 27.463,27.463 0 0 0 -5.371,0.046 c -1.791,0.199 -3.174,0.486 -4.127,0.845 -3.863,1.171 -7.295,2.938 -10.199,5.247 -2.902,2.306 -5.279,4.99 -7.066,7.975 -1.787,2.99 -2.984,6.196 -3.561,9.526 -0.574,3.339 -0.525,6.649 0.145,9.853 1.029,4.841 3.334,8.614 6.844,11.207 2.967,2.198 6.35,3.308 10.098,3.308 0.701,0 1.416,-0.039 2.143,-0.117 2.32,-0.293 4.873,-0.917 7.59,-1.854 a 85.24,85.24 0 0 0 8.057,-3.255 103.203,103.203 0 0 0 7.668,-3.951 156.605,156.605 0 0 0 5.539,-3.312 c 2.398,1.334 4.639,2.026 6.678,2.06 1.916,0.008 4.525,-0.719 5.959,-4.413 0.9,-2.039 0.919,-4.411 0.054,-7.058 m -24.799,-2.389 c -2.184,1.713 -5.018,3.3 -8.447,4.727 -3.865,1.611 -7.326,2.665 -10.359,3.146 -0.641,0.128 -1.172,0.073 -1.631,-0.166 -0.484,-0.252 -0.611,-0.509 -0.666,-0.697 -0.451,-1.736 -0.34,-3.431 0.346,-5.187 a 15.56,15.56 0 0 1 3.201,-5.054 21.965,21.965 0 0 1 4.838,-3.877 c 1.697,-0.994 3.291,-1.64 4.738,-1.915 0.654,0.003 1.463,0.498 1.998,0.933 a 18.191,18.191 0 0 1 2.93,3.049 32.251,32.251 0 0 1 2.389,3.598 c 0.363,0.638 0.558,1.109 0.663,1.443"
     id="path1" />
  <path
     fill="#fc5812"
     d="m 412.38705,197.14662 c -0.832,-1.671 -2.092,-4.2 -37.066,-0.626 -20.352,2.079 -42.609,5.274 -48.945,6.204 a 5.132,5.132 0 0 0 -3.5,2.164 c -0.502,0.37 -0.934,0.824 -1.268,1.329 -2.484,3.474 -5.012,7.446 -7.51,11.804 -1.748,3.046 -5.621,10.705 -8.734,16.858 -1.35,2.667 -2.525,4.994 -3.266,6.422 -2.414,4.656 -4.795,9.244 -7.146,13.769 -1.826,3.512 -3.563,6.846 -5.207,10.002 a 88.97,88.97 0 0 1 -2.396,-4.152 289.645,289.645 0 0 1 -4.014,-7.639 535.651,535.651 0 0 1 -6.576,-13.433 c -1.039,-1.908 -2.432,-3.75 -4.141,-5.478 -1.775,-1.789 -3.586,-3.04 -5.383,-3.718 l -0.256,-0.075 c -2.457,-0.521 -4.533,-0.35 -6.156,0.512 -0.748,0.35 -1.725,1.099 -2.271,2.693 -0.432,1.251 -0.43,2.408 0.006,3.438 2.875,8.18 6.576,16.622 10.998,25.094 4.42,8.487 8.947,16.309 13.445,23.244 a 20.328,20.328 0 0 0 3.197,3.8 c 1.395,1.303 3.227,1.962 5.447,1.962 0.137,0 0.271,-0.003 0.406,-0.008 1.932,-0.069 3.578,-0.907 4.902,-2.5 1.08,-1.31 2.111,-2.972 3.164,-5.119 3.773,-8.126 7.158,-15.185 10.059,-20.976 a 3138.692,3138.692 0 0 1 7.676,-15.231 c 2.186,-4.316 4.277,-8.232 6.213,-11.639 1.09,-1.918 3.539,-6.734 5.908,-11.392 1.844,-3.629 3.592,-7.062 4.469,-8.682 14.766,-1.273 48.42,-4.418 67.609,-8.136 8.234,-1.594 10.748,-2.566 11.697,-4.519 0.826,-1.691 -0.002,-3.306 -0.959,-5.176 z"
     id="path2" />
  <path
     d="m 110.70705,277.09962 c -0.715,-1.542 -1.324,-3.581 -1.81,-6.063 -0.508,-2.573 -0.959,-5.3 -1.347,-8.104 a 93,93 0 0 1 -0.769,-8.335 c -0.131,-2.764 -0.2,-5.336 -0.205,-7.565 0.14,-3.346 -0.623,-6.212 -2.267,-8.525 -1.74,-2.44 -4.074,-3.757 -6.938004,-3.912 l -0.209,-0.012 -0.206,0.039 c -1.941,0.357 -3.514,1.553 -4.672,3.552 a 13.201,13.201 0 0 0 -1.773,5.787 l -0.004,0.123 c 10e-4,1.682 0.036,4.203 0.108,7.562 0.068,3.359 0.304,7.043 0.699,10.952 0.395,3.896 0.994,7.882 1.778,11.842 0.808,4.076 1.974,7.581 3.43,10.346 a 13.86,13.86 0 0 0 5.301004,5.947 c 1.498,0.936 2.864,1.282 4.066,1.282 1.47,0 2.691,-0.521 3.604,-1.106 1.963,-1.251 2.917,-3.424 2.833,-6.46 -0.075,-2.595 -0.616,-5.056 -1.605,-7.312 z m -15.367004,-50.824 a 9.041,9.041 0 0 0 2.153,0.263 c 1.725003,0 3.431004,-0.502 4.951004,-1.476 2.122,-1.362 3.629,-3.49 4.244,-5.991 1.277,-5.196 -1.735,-10.421 -6.714998,-11.644 -2.429006,-0.598 -4.951006,-0.167 -7.104006,1.214 -2.122,1.363 -3.629,3.491 -4.244,5.991 -0.614,2.5 -0.265,5.083 0.983,7.274 1.267,2.221 3.303,3.773 5.732,4.369 m 87.612004,8.355 c -0.02,-1.933 -1.042,-3.764 -3.043,-5.445 -1.991,-1.671 -4.295,-2.36 -6.923,-2.028 -1.139,0.191 -2.205,0.778 -3.174,1.747 a 12.224,12.224 0 0 0 -2.14,2.923 14.747,14.747 0 0 0 -1.313,3.392 c -0.292,1.157 -0.439,2.212 -0.439,3.132 0,3.335 -0.822,6.823 -2.446,10.37 -1.666,3.643 -3.704,6.996 -6.054,9.966 -2.335,2.949 -4.785,5.371 -7.283,7.202 -2.32,1.696 -4.278,2.556 -5.816,2.556 -1.048,0 -2.148,-0.843 -3.272,-2.508 -1.42,-2.096 -2.764,-4.57 -4,-7.354 a 74.592,74.592 0 0 1 -3.207,-8.581 c -0.903,-2.96 -1.626,-5.196 -2.152,-6.649 l -0.055,-0.132 c -0.839,-1.84 -2.333,-3.186 -4.443,-4.002 -1.985,-0.761 -4.131,-0.919 -6.354,-0.474 -2.848,0.521 -3.673,2.4 -3.91,3.47 -0.308,1.376 -0.315,2.835 -0.02,4.336 0.146,1.127 0.571,2.957 1.296,5.586 0.707,2.58 1.662,5.548 2.84,8.819 a 115.495,115.495 0 0 0 4.213,10.096 c 1.654,3.506 3.57,6.698 5.734,9.537 1.971,2.396 4.014,4.06 6.071,4.938 4.411,1.896 8.876,1.697 13.767,-0.493 a 45.395,45.395 0 0 0 7.428,-4.215 49.761,49.761 0 0 0 6.805,-5.702 84.616,84.616 0 0 0 2.758,-2.888 c 0.395,5.996 0.312,11.63 -0.249,16.801 -0.688,6.306 -2.171,12.215 -4.411,17.561 -2.368,5.656 -9.438,18.219 -14.511,22.064 -0.301,0.228 -0.602,0.469 -0.886,0.719 -1.772,1.574 -3.035,3.071 -3.857,4.582 -1.013,1.854 -1.248,3.626 -0.705,5.258 0.407,1.227 1.288,2.186 2.619,2.853 1.054,0.529 2.261,0.908 3.586,1.129 0.784,0.131 1.589,0.195 2.408,0.195 0.541,0 1.089,-0.029 1.641,-0.086 a 9.658,9.658 0 0 0 4.127,-1.417 c 6.909,-4.338 16.521,-19.199 19.242,-25.523 2.616,-6.083 4.506,-12.553 5.622,-19.229 a 161.884,161.884 0 0 0 2.05,-20.398 c 0.257,-6.902 0.159,-14.01 -0.292,-21.122 -0.435,-6.791 -0.855,-13.853 -1.252,-20.986"
     id="path3" />
</svg>
